<?xml version="1.0" encoding="UTF-8"?> <svg xmlns="http://www.w3.org/2000/svg" width="25" height="40" viewBox="0 0 25 40"><metadata><?xpacket begin="﻿" id="W5M0MpCehiHzreSzNTczkc9d"?><?xpacket end="w"?></metadata><defs><style> .cls-1 { fill: #b8ccc6; fill-rule: evenodd; } </style></defs><path id="decor-category-vase" class="cls-1" d="M1314.55,156.7a5.134,5.134,0,0,1-1.11-5.436l2.11-5.4a0.635,0.635,0,0,0-.59-0.861h-16.92a0.635,0.635,0,0,0-.59.861l2.11,5.406a5.133,5.133,0,0,1-1.11,5.435,16.754,16.754,0,0,0-4.45,11.667,17.607,17.607,0,0,0,2.25,8.742,13.274,13.274,0,0,0,5.48,5.355v1.9a0.627,0.627,0,0,0,.62.631h8.3a0.627,0.627,0,0,0,.62-0.631v-1.9a13.274,13.274,0,0,0,5.48-5.355,17.607,17.607,0,0,0,2.25-8.742A16.754,16.754,0,0,0,1314.55,156.7Zm-4.15,24.786a0.955,0.955,0,0,0-.13.074h0c-0.01.012-.03,0.025-0.04,0.038s-0.01,0-.01,0a0.167,0.167,0,0,1-.04.04v0c-0.01.014-.03,0.028-0.04,0.043v0q-0.015.022-.03,0.048h0l-0.03.052h0a0.123,0.123,0,0,0-.02.056h0a0.119,0.119,0,0,0-.02.055v0a0.094,0.094,0,0,0-.01.051,0.012,0.012,0,0,0-.01.013v1.763h-7.04V182.7h3.52a0.63,0.63,0,0,0,0-1.26h-4c-4.34-2.061-7.24-7.292-7.24-13.071a15.489,15.489,0,0,1,4.09-10.786,5.739,5.739,0,0,0,.57-0.675h7.96a0.631,0.631,0,0,0,0-1.261h-7.24a6.384,6.384,0,0,0,.1-4.84l-1.78-4.545h15.08l-1.78,4.545a6.409,6.409,0,0,0,1.39,6.775,15.493,15.493,0,0,1,4.09,10.787C1317.74,174.192,1314.79,179.461,1310.4,181.487Zm6.12-12.935a13.585,13.585,0,0,1-.94,4.98,0.629,0.629,0,0,1-.59.4,0.666,0.666,0,0,1-.23-0.044,0.63,0.63,0,0,1-.35-0.819,12.356,12.356,0,0,0,.85-4.517,12.056,12.056,0,0,0-4.05-9.084,0.623,0.623,0,0,1-.06-0.89,0.631,0.631,0,0,1,.89-0.06A13.33,13.33,0,0,1,1316.52,168.552Zm-2.6,7.99a13.127,13.127,0,0,1-1.46,1.653,0.622,0.622,0,0,1-.43.175,0.64,0.64,0,0,1-.46-0.195,0.632,0.632,0,0,1,.02-0.891,11.056,11.056,0,0,0,1.31-1.492,0.629,0.629,0,0,1,.88-0.132A0.639,0.639,0,0,1,1313.92,176.542Z" transform="translate(-1294 -145)"></path></svg> 