<?xml version="1.0" encoding="UTF-8"?> <svg xmlns="http://www.w3.org/2000/svg" width="36" height="30" viewBox="0 0 36 30"><metadata><?xpacket begin="﻿" id="W5M0MpCehiHzreSzNTczkc9d"?><?xpacket end="w"?></metadata><defs><style> .cls-1 { fill: #b8ccc6; fill-rule: evenodd; } </style></defs><path id="decor-category-art" class="cls-1" d="M1089.37,154.073h-13.29l-3.63-3.877a0.6,0.6,0,0,0-.89,0l-3.63,3.877h-13.29a0.651,0.651,0,0,0-.63.672v24.582a0.651,0.651,0,0,0,.63.672h34.73a0.651,0.651,0,0,0,.63-0.672V154.745A0.651,0.651,0,0,0,1089.37,154.073Zm-2.86,2.777H1057.5l-1.34-1.433h31.69Zm-0.37,1.344v17.684h-28.27V158.194h28.27Zm-29.53-.394v18.472l-1.34,1.433V156.367Zm0.89,19.422h29.01l1.34,1.433h-31.69Zm29.9-.95V157.8l1.34-1.433v21.338ZM1072,151.621l2.3,2.452h-4.59Zm-10.9,21.48h21.81a0.651,0.651,0,0,0,.63-0.672V161.643a0.651,0.651,0,0,0-.63-0.672H1061.1a0.651,0.651,0,0,0-.63.672v10.786A0.651,0.651,0,0,0,1061.1,173.1Zm0.63-1.344v-1.721a10.48,10.48,0,0,1,7.56,1.4,0.62,0.62,0,0,0,.32.09,0.607,0.607,0,0,0,.42-0.174,10.725,10.725,0,0,1,7.46-3.065,10.567,10.567,0,0,1,4.79,1.157v2.315h-20.55Zm20.55-9.442v5.656a11.737,11.737,0,0,0-12.75,2.065,11.762,11.762,0,0,0-5.8-1.537,11.56,11.56,0,0,0-2,.174v-6.358h20.55Zm-14.89,5.644a2.469,2.469,0,1,0-2.31-2.463A2.4,2.4,0,0,0,1067.39,167.959Zm0-3.583a1.122,1.122,0,1,1-1.05,1.12A1.087,1.087,0,0,1,1067.39,164.376Z" transform="translate(-1054 -150)"></path></svg> 