<?xml version="1.0" encoding="UTF-8"?> <svg xmlns="http://www.w3.org/2000/svg" width="30" height="51" viewBox="0 0 30 51"><metadata><?xpacket begin="﻿" id="W5M0MpCehiHzreSzNTczkc9d"?><?xpacket end="w"?></metadata><defs><style> .cls-1 { fill: #b8ccc6; fill-rule: evenodd; } </style></defs><path id="decor-infobox-candle" class="cls-1" d="M1537.22,3493.45h-5.6v-31.43a2.552,2.552,0,0,0-2.56-2.53h-5.63v-2.79a5.025,5.025,0,0,0,4.24-4.93c0-2.04-2.53-5.44-4.04-7.29a1.324,1.324,0,0,0-2.04,0c-1.51,1.85-4.04,5.25-4.04,7.29a5.023,5.023,0,0,0,4.31,4.94v2.78h-5.65a2.555,2.555,0,0,0-2.57,2.53v25.39a0.79,0.79,0,0,0,.79.78,0.781,0.781,0,0,0,.78-0.78v-25.39a0.992,0.992,0,0,1,1-.98h1.51v6.5a2.335,2.335,0,0,0,4.67,0v-1.23a0.8,0.8,0,1,1,1.53,0v4.71a2.335,2.335,0,0,0,4.67,0v-7.28a0.779,0.779,0,0,0-.78-0.77,0.788,0.788,0,0,0-.79.77v7.28a0.76,0.76,0,0,1-.76.76,0.768,0.768,0,0,1-.77-0.76v-4.71a2.347,2.347,0,1,0-4.67,0v1.23a0.765,0.765,0,0,1-1.53,0v-6.5h9.77a0.992,0.992,0,0,1,1,.98v31.43h-14.85v-2.73a0.781,0.781,0,0,0-.78-0.78,0.79,0.79,0,0,0-.79.78v2.73h-4.86a0.775,0.775,0,1,0,0,1.55h28.44A0.775,0.775,0,1,0,1537.22,3493.45Zm-18.11-41.68c0-.38.19-1.29,1.42-3.21a35.307,35.307,0,0,1,2.08-2.86,35.307,35.307,0,0,1,2.08,2.86c1.23,1.92,1.41,2.83,1.41,3.21A3.5,3.5,0,0,1,1519.11,3451.77Z" transform="translate(-1508 -3444)"></path></svg> 