<?xml version="1.0" encoding="UTF-8"?> <svg xmlns="http://www.w3.org/2000/svg" width="43" height="50" viewBox="0 0 43 50"><metadata><?xpacket begin="﻿" id="W5M0MpCehiHzreSzNTczkc9d"?><?xpacket end="w"?></metadata><defs><style> .cls-1 { fill: #b8ccc6; fill-rule: evenodd; } </style></defs><path id="decor-infobox-colum" class="cls-1" d="M770.234,3458.26a6.661,6.661,0,0,0-.776-13.26H739.542a6.661,6.661,0,0,0-.776,13.26v8.05a2.908,2.908,0,0,0,0,5.57v22.33a0.776,0.776,0,1,0,1.552,0v-22.22h28.364v22.22a0.776,0.776,0,1,0,1.552,0v-22.33a2.908,2.908,0,0,0,0-5.57v-8.05Zm-35.682-6.61a5.04,5.04,0,0,1,4.99-5.07h29.916a5.076,5.076,0,1,1-4.99,5.07,5.1,5.1,0,0,1,.562-2.34,0.792,0.792,0,0,0-.33-1.06,0.775,0.775,0,0,0-1.047.33,6.783,6.783,0,0,0-.737,3.07,6.62,6.62,0,0,0,5.765,6.61v3.73H745.752a0.79,0.79,0,0,0,0,1.58h22.93v2.63H740.318v-2.63h2.329a0.79,0.79,0,0,0,0-1.58h-2.329v-3.73a6.62,6.62,0,0,0,5.766-6.61,6.783,6.783,0,0,0-.737-3.07,0.775,0.775,0,0,0-1.047-.33,0.792,0.792,0,0,0-.33,1.06,5.1,5.1,0,0,1,.562,2.34A4.991,4.991,0,1,1,734.552,3451.65Zm36.2,17.45a1.305,1.305,0,0,1-1.294,1.31H739.542a1.315,1.315,0,0,1,0-2.63h29.916A1.308,1.308,0,0,1,770.752,3469.1Zm-24.766,5.52a2.876,2.876,0,0,0-2.846,2.9v16.69a0.776,0.776,0,1,0,1.552,0v-16.69a1.294,1.294,0,1,1,2.588,0v16.69a0.776,0.776,0,1,0,1.552,0v-16.69A2.876,2.876,0,0,0,745.986,3474.62Zm8.514,0a2.876,2.876,0,0,0-2.846,2.9v16.69a0.776,0.776,0,1,0,1.552,0v-16.69a1.294,1.294,0,1,1,2.588,0v16.69a0.776,0.776,0,1,0,1.552,0v-16.69A2.876,2.876,0,0,0,754.5,3474.62Zm8.514,0a2.876,2.876,0,0,0-2.846,2.9v16.69a0.776,0.776,0,1,0,1.552,0v-16.69a1.294,1.294,0,1,1,2.588,0v3.16a0.776,0.776,0,1,0,1.552,0v-3.16A2.876,2.876,0,0,0,763.014,3474.62Zm2.07,8.42a0.787,0.787,0,0,0-.776.79v10.38a0.776,0.776,0,1,0,1.552,0v-10.38A0.787,0.787,0,0,0,765.084,3483.04Zm-22.1-31.39a0.776,0.776,0,1,0-1.552,0,1.885,1.885,0,1,1-1.885-1.91,0.79,0.79,0,0,0,0-1.58A3.5,3.5,0,1,0,742.979,3451.65Zm26.479,3.5a3.5,3.5,0,0,0,0-6.99,0.79,0.79,0,0,0,0,1.58,1.915,1.915,0,1,1-1.885,1.91,0.776,0.776,0,1,0-1.552,0A3.472,3.472,0,0,0,769.458,3455.15Zm-21.045-2.71h12.174a0.79,0.79,0,0,0,0-1.58H748.413A0.79,0.79,0,0,0,748.413,3452.44Z" transform="translate(-733 -3445)"></path></svg> 