<?xml version="1.0" encoding="UTF-8"?> <svg xmlns="http://www.w3.org/2000/svg" width="35" height="33" viewBox="0 0 35 33"><metadata><?xpacket begin="﻿" id="W5M0MpCehiHzreSzNTczkc9d"?><?xpacket end="w"?></metadata><defs><style> .cls-1 { fill: #b8ccc6; fill-rule: evenodd; } </style></defs><path id="decor-category-lamp" class="cls-1" d="M833.644,159.176l-0.966-4.3a0.668,0.668,0,0,0-.649-0.525h-0.864v-5.68a0.666,0.666,0,1,0-1.332,0v5.68h-0.864a0.668,0.668,0,0,0-.649.525l-0.966,4.3a17.737,17.737,0,0,0-14.36,17.493,0.671,0.671,0,0,0,.666.676h12.628a4.253,4.253,0,0,0,8.422,0h12.629a0.671,0.671,0,0,0,.665-0.676A17.735,17.735,0,0,0,833.644,159.176Zm-4.144-3.469h2l0.734,3.268q-0.855-.085-1.734-0.087t-1.734.087Zm1,23.94a2.947,2.947,0,0,1-2.855-2.3h5.71A2.947,2.947,0,0,1,830.5,179.647Zm-16.16-3.654a16.165,16.165,0,0,1,32.32,0h-32.32Zm30.25-3.007a0.674,0.674,0,0,0-.515.8c0.043,0.213.083,0.43,0.117,0.646a0.668,0.668,0,0,0,.656.569,0.756,0.756,0,0,0,.106-0.008,0.676,0.676,0,0,0,.552-0.775c-0.037-.237-0.08-0.475-0.128-0.709A0.666,0.666,0,0,0,844.589,172.986Zm-8.718-10.758a0.663,0.663,0,0,0-.859.392,0.68,0.68,0,0,0,.387.872,14,14,0,0,1,8.14,8.385,0.666,0.666,0,0,0,.626.445,0.649,0.649,0,0,0,.227-0.041,0.679,0.679,0,0,0,.4-0.866A15.341,15.341,0,0,0,835.871,162.228Zm-2.944-.8a15.016,15.016,0,0,0-2.428-.2,0.676,0.676,0,0,0,0,1.352,13.764,13.764,0,0,1,2.216.18,0.651,0.651,0,0,0,.107.008A0.677,0.677,0,0,0,832.927,161.429Z" transform="translate(-813 -148)"></path></svg> 