<?xml version="1.0" encoding="UTF-8"?> <svg xmlns="http://www.w3.org/2000/svg" width="31" height="40" viewBox="0 0 31 40"><metadata><?xpacket begin="﻿" id="W5M0MpCehiHzreSzNTczkc9d"?><?xpacket end="w"?></metadata><defs><style> .cls-1 { fill: #b8ccc6; fill-rule: evenodd; } </style></defs><path id="decor-category-baloons" class="cls-1" d="M1562.11,154.936a9.389,9.389,0,0,0-7.02-3.048,10,10,0,0,0-1.89.18,10.209,10.209,0,0,0-3.48-5.129,9.635,9.635,0,0,0-12.83,1.108,11.836,11.836,0,0,0-2.89,8.186,16.971,16.971,0,0,0,2.83,9.372,9.447,9.447,0,0,0,5.74,4.23v0.013l-0.47,1.9a0.567,0.567,0,0,0,.1.5,0.58,0.58,0,0,0,.46.226h0.66v11.938a0.585,0.585,0,1,0,1.17,0V172.475h0.66a0.58,0.58,0,0,0,.46-0.226,0.567,0.567,0,0,0,.1-0.5l-0.47-1.9v-0.013a7.557,7.557,0,0,0,1.19-.353,15.581,15.581,0,0,0,1.59,3.011,9.449,9.449,0,0,0,5.74,4.231v0.012l-0.47,1.9a0.569,0.569,0,0,0,.1.5,0.579,0.579,0,0,0,.46.225h0.66v5.05a0.585,0.585,0,1,0,1.17,0v-5.05h0.66a0.579,0.579,0,0,0,.46-0.225,0.569,0.569,0,0,0,.1-0.5l-0.47-1.9v-0.012a9.449,9.449,0,0,0,5.74-4.231,16.971,16.971,0,0,0,2.83-9.372A11.834,11.834,0,0,0,1562.11,154.936Zm-18.7,16.365,0.29-1.168a0.212,0.212,0,0,1,.21-0.163,0.209,0.209,0,0,1,.2.163l0.29,1.168h-0.99Zm0.5-2.5c-2.24,0-4.41-1.37-6.12-3.857a15.756,15.756,0,0,1-2.62-8.706,10.713,10.713,0,0,1,2.57-7.389,8.261,8.261,0,0,1,6.17-2.67,8.432,8.432,0,0,1,8.16,6.186,9.733,9.733,0,0,0-1.23.5,7.891,7.891,0,0,0-2.19-3.583,0.588,0.588,0,0,0-.83.043,0.6,0.6,0,0,0,.05.829,6.844,6.844,0,0,1,1.93,3.308,9.93,9.93,0,0,0-1.73,1.482,11.875,11.875,0,0,0-2.88,8.185,17.1,17.1,0,0,0,.84,5.257A5.736,5.736,0,0,1,1543.91,168.8Zm10.69,9.393,0.29-1.168a0.208,0.208,0,0,1,.2-0.162,0.212,0.212,0,0,1,.21.162l0.29,1.168h-0.99Zm6.61-6.362c-1.71,2.487-3.88,3.857-6.12,3.857s-4.41-1.37-6.11-3.857a15.762,15.762,0,0,1-2.63-8.706,10.672,10.672,0,0,1,2.58-7.389,8.246,8.246,0,0,1,1.78-1.466,0.82,0.82,0,0,0,.12-0.069,8.377,8.377,0,0,1,4.26-1.135,8.261,8.261,0,0,1,6.17,2.67,10.713,10.713,0,0,1,2.57,7.389A15.754,15.754,0,0,1,1561.21,171.827Zm-3.42-16.938a6.951,6.951,0,0,0-1.35-.381,0.587,0.587,0,1,0-.2,1.157,5.944,5.944,0,0,1,1.13.317,0.56,0.56,0,0,0,.21.041A0.588,0.588,0,0,0,1557.79,154.889Zm-4.29,17.861a9.631,9.631,0,0,1-3.96-5.432,0.586,0.586,0,1,0-1.11.374,10.661,10.661,0,0,0,4.53,6.1,0.586,0.586,0,0,0,.27.067,0.593,0.593,0,0,0,.52-0.314A0.587,0.587,0,0,0,1553.5,172.75Zm6.33-16.587a0.577,0.577,0,0,0-.82.042,0.6,0.6,0,0,0,.04.83,8.047,8.047,0,0,1,2.3,6.086,0.58,0.58,0,1,0,1.16,0A9.188,9.188,0,0,0,1559.83,156.163Zm-17.52,9.7a9.634,9.634,0,0,1-3.96-5.433,0.586,0.586,0,1,0-1.11.374,10.706,10.706,0,0,0,4.53,6.1,0.585,0.585,0,0,0,.79-0.247A0.587,0.587,0,0,0,1542.31,165.862Zm4.08-16.728a0.588,0.588,0,0,0,.21-1.134,6.879,6.879,0,0,0-1.35-.38,0.587,0.587,0,0,0-.2,1.156,5.946,5.946,0,0,1,1.13.318A0.579,0.579,0,0,0,1546.39,149.134Z" transform="translate(-1534 -145)"></path></svg> 